<svg viewBox="0 0 800 600" xmlns="http://www.w3.org/2000/svg" role="img" aria-labelledby="lumeraTitleDark">
  <title id="lumeraTitleDark">Luméra Jewels landing page preview, dark browser frame</title>
  <defs>
    <linearGradient id="lumeraBgDark" x1="0%" y1="0%" x2="100%" y2="100%">
      <stop offset="0%" stop-color="#171B22"/>
      <stop offset="100%" stop-color="#0F1115"/>
    </linearGradient>
    <linearGradient id="lumeraGemDark" x1="0%" y1="0%" x2="100%" y2="100%">
      <stop offset="0%" stop-color="#00C896"/>
      <stop offset="100%" stop-color="#00846A"/>
    </linearGradient>
  </defs>
  <rect width="800" height="600" fill="url(#lumeraBgDark)"/>
  <rect x="0" y="0" width="800" height="46" fill="#1F2630"/>
  <circle cx="28" cy="23" r="5.5" fill="#3A4250"/>
  <circle cx="50" cy="23" r="5.5" fill="#3A4250"/>
  <circle cx="72" cy="23" r="5.5" fill="#3A4250"/>
  <line x1="0" y1="46" x2="800" y2="46" stroke="rgba(255,255,255,.08)" stroke-width="1"/>
  <text x="48" y="110" font-family="Manrope, sans-serif" font-size="26" letter-spacing="5" fill="#FFFFFF">LUM&#201;RA</text>
  <line x1="600" y1="96" x2="720" y2="96" stroke="#A1A8B3" stroke-width="1" opacity="0.4"/>
  <g transform="translate(400,340)">
    <polygon points="0,-110 75,-24 45,100 -45,100 -75,-24" fill="url(#lumeraGemDark)" opacity="0.95"/>
    <polygon points="0,-110 75,-24 0,12 -75,-24" fill="#12D9A4" opacity="0.55"/>
    <polygon points="0,12 45,100 -45,100" fill="#00644F" opacity="0.9"/>
  </g>
  <line x1="230" y1="470" x2="570" y2="470" stroke="rgba(255,255,255,.12)" stroke-width="1"/>
  <text x="400" y="505" font-family="Inter, sans-serif" font-size="14" letter-spacing="3" fill="#A1A8B3" text-anchor="middle">TIMELESS &#183; HANDCRAFTED &#183; RARE</text>
</svg>
